<?xml version="1.0" standalone="no"?>
<!DOCTYPE svg PUBLIC "-//W3C//DTD SVG 20010904//EN"
 "http://www.w3.org/TR/2001/REC-SVG-20010904/DTD/svg10.dtd">
<svg version="1.0" xmlns="http://www.w3.org/2000/svg"
 width="400.000000pt" height="400.000000pt" viewBox="0 0 400.000000 400.000000"
 preserveAspectRatio="xMidYMid meet">
<metadata>
Created by potrace 1.14, written by Peter Selinger 2001-2017
</metadata>
<g transform="translate(0.000000,400.000000) scale(0.100000,-0.100000)"
fill="#000000" stroke="none">
<path d="M67 3933 c-4 -3 -7 -876 -7 -1940 l0 -1933 1940 0 1940 0 0 1940 0
1940 -1933 0 c-1064 0 -1937 -3 -1940 -7z m3853 -1933 l0 -1920 -1920 0 -1920
0 0 1913 c0 1053 3 1917 7 1920 3 4 867 7 1920 7 l1913 0 0 -1920z"/>
<path d="M2098 3393 c6 -2 18 -2 25 0 6 3 1 5 -13 5 -14 0 -19 -2 -12 -5z"/>
<path d="M1672 3373 c-35 -8 -62 -17 -59 -19 5 -5 127 22 135 30 7 8 -3 7 -76
-11z"/>
<path d="M2188 3383 c7 -3 16 -2 19 1 4 3 -2 6 -13 5 -11 0 -14 -3 -6 -6z"/>
<path d="M2228 3373 c7 -3 16 -2 19 1 4 3 -2 6 -13 5 -11 0 -14 -3 -6 -6z"/>
<path d="M2275 3360 c11 -5 27 -9 35 -9 13 -1 13 0 0 9 -8 5 -24 9 -35 9 l-20
0 20 -9z"/>
<path d="M1578 3343 c7 -3 16 -2 19 1 4 3 -2 6 -13 5 -11 0 -14 -3 -6 -6z"/>
<path d="M2346 3335 c10 -8 27 -15 37 -15 9 0 17 -5 17 -11 0 -5 4 -8 9 -5 9
6 71 -24 71 -35 0 -3 -27 -4 -60 -3 -37 2 -60 0 -60 -7 0 -6 -4 -8 -9 -5 -5 4
-7 -3 -4 -14 3 -11 12 -20 21 -20 13 0 12 -3 -3 -14 -11 -8 -24 -12 -29 -9 -5
4 -6 1 -2 -5 5 -8 -1 -12 -14 -12 -14 0 -19 4 -14 13 4 6 3 8 -1 4 -5 -4 -10
-14 -11 -21 -1 -7 -14 -32 -30 -55 -22 -34 -32 -41 -48 -36 -12 4 -30 8 -41 9
-14 2 -15 2 -2 -1 15 -4 16 -7 5 -21 -12 -15 -11 -16 5 -3 12 9 17 10 17 2 0
-7 5 -9 13 -5 6 5 0 -8 -15 -28 -16 -20 -28 -46 -28 -58 0 -12 -4 -18 -10 -15
-6 4 -10 3 -9 -2 3 -19 -2 -34 -10 -29 -5 4 -7 -2 -4 -12 2 -10 -6 -29 -21
-45 -14 -15 -23 -34 -20 -42 4 -9 0 -15 -8 -15 -9 0 -13 -13 -13 -41 0 -27 2
-34 7 -22 25 63 35 89 35 93 -1 11 68 129 108 185 68 96 152 174 202 189 19 6
22 4 17 -11 -5 -16 -4 -16 8 -2 7 9 21 16 30 16 23 0 32 -45 23 -126 -5 -46
-4 -63 4 -56 6 6 11 25 13 43 1 17 6 32 11 32 4 0 5 5 2 10 -3 6 -1 10 5 10 6
0 9 4 5 9 -3 5 -1 13 5 16 6 4 10 3 9 -2 -1 -4 -1 -15 0 -23 1 -12 3 -13 10
-1 7 10 17 5 45 -25 32 -34 36 -44 38 -99 l2 -60 5 75 c3 41 3 80 0 85 -11 17
-33 89 -31 98 1 5 -2 6 -7 3 -5 -4 -11 -2 -13 3 -5 15 -120 81 -140 81 -10 0
-18 4 -18 8 0 9 -87 42 -109 42 -11 0 -9 -4 5 -15z m251 -144 c12 -9 23 -22
23 -28 0 -7 5 -13 12 -13 6 0 9 -3 5 -6 -5 -5 -68 37 -102 69 -16 15 37 -4 62
-22z"/>
<path d="M1530 3330 c-8 -5 -10 -10 -5 -10 6 0 17 5 25 10 8 5 11 10 5 10 -5
0 -17 -5 -25 -10z"/>
<path d="M1615 3323 c-16 -3 -63 -13 -103 -23 -41 -10 -81 -16 -90 -13 -15 4
-15 3 -2 -6 12 -9 10 -11 -12 -11 -35 0 -79 -20 -72 -32 3 -5 0 -8 -7 -7 -54
11 -374 -242 -361 -284 1 -5 -1 -6 -6 -3 -12 7 -48 -33 -104 -114 -115 -166
-184 -315 -234 -505 -27 -105 -29 -121 -29 -325 0 -230 4 -261 56 -423 35
-107 125 -296 145 -304 8 -3 11 -9 9 -14 -3 -5 11 -25 32 -46 21 -20 32 -33
26 -29 -9 5 -11 2 -7 -8 3 -8 11 -13 18 -10 14 5 83 -63 73 -72 -4 -4 -15 -1
-24 7 -16 13 -17 12 -4 -4 8 -10 20 -16 26 -13 13 5 35 -12 35 -27 0 -4 -5 -5
-12 -1 -7 5 -8 3 -3 -6 6 -10 11 -9 22 5 12 18 13 18 13 -3 0 -12 0 -25 1 -29
1 -14 32 -43 46 -43 7 0 12 -3 11 -7 -2 -5 0 -8 4 -8 4 0 14 -9 22 -21 35 -49
238 -170 335 -200 97 -29 120 -16 180 105 37 72 99 223 116 281 4 14 11 30 15
35 4 6 11 26 15 45 4 19 18 62 30 95 12 33 48 141 79 240 66 209 73 225 104
236 21 8 22 6 22 -46 0 -30 3 -55 8 -55 4 0 7 22 7 50 -1 72 19 70 40 -3 30
-101 62 -154 109 -176 23 -11 57 -21 77 -23 28 -1 35 -6 32 -18 -2 -9 5 -45
17 -80 12 -36 24 -104 27 -153 5 -75 3 -95 -12 -123 -10 -19 -22 -34 -27 -34
-5 0 -7 -4 -3 -9 3 -5 1 -12 -4 -15 -5 -4 -12 -2 -16 4 -3 5 -11 10 -16 10 -6
0 -7 -4 -4 -10 3 -6 -1 -7 -9 -4 -9 3 -14 10 -11 15 3 4 -5 13 -17 20 -13 6
-33 23 -46 38 -28 31 -18 9 16 -37 32 -42 100 -82 138 -81 l29 1 -30 14 c-26
13 -27 14 -5 10 23 -5 23 -4 8 8 -19 14 -24 36 -9 36 5 0 12 8 16 19 5 18 20
36 82 102 18 20 21 29 12 34 -8 5 -10 4 -5 -3 4 -6 -6 -18 -24 -27 -31 -16
-40 -9 -17 14 6 7 8 12 2 11 -24 -5 -36 1 -33 18 3 15 14 20 81 37 9 2 23 7
30 12 6 4 19 6 29 5 9 -2 19 2 23 8 10 16 20 12 64 -24 49 -42 101 -60 141
-51 35 8 51 -15 32 -46 -19 -30 -14 -34 12 -10 19 18 25 19 29 7 7 -17 -26
-50 -38 -39 -4 5 -5 3 -2 -3 4 -7 0 -15 -9 -18 -12 -4 -15 -2 -10 9 9 23 -10
18 -27 -8 -9 -13 -28 -28 -44 -34 -99 -36 -133 -41 -133 -20 0 6 -5 4 -11 -6
-5 -9 -17 -17 -24 -17 -8 0 -15 -6 -15 -12 0 -9 -3 -8 -10 2 -8 13 -11 13 -22
-2 -7 -9 -24 -19 -38 -21 -14 -2 -2 -5 27 -6 68 -1 201 44 300 103 74 45 77
46 96 29 19 -18 20 -17 7 6 -13 25 -6 36 44 69 6 4 27 25 46 47 32 37 33 38 5
15 -16 -14 -34 -31 -38 -38 -5 -7 -14 -9 -20 -6 -7 4 -9 4 -5 0 9 -11 -43 -55
-58 -49 -20 8 -23 29 -9 57 10 19 11 25 2 21 -7 -4 -1 2 13 13 54 43 73 62 67
68 -3 4 -13 -1 -22 -10 -24 -24 -25 -20 -8 29 18 54 11 103 -17 128 -19 16
-20 16 -20 -1 0 -23 -35 -39 -73 -34 -23 3 -26 7 -21 29 l7 25 -26 -26 c-14
-14 -36 -26 -47 -26 -12 0 -18 -4 -15 -10 3 -6 -5 -10 -19 -10 l-24 0 21 43
c12 23 25 44 29 47 10 8 -4 26 -19 25 -20 0 -65 -54 -57 -68 5 -9 4 -9 -7 1
-10 9 -10 15 -1 24 7 7 12 16 12 20 0 15 -29 8 -38 -8 -18 -31 -23 5 -6 38 22
44 23 45 35 28 8 -12 10 -10 6 8 -4 17 0 23 21 29 16 4 27 2 30 -6 3 -8 8 -9
16 -2 11 10 14 -4 7 -39 -1 -3 -6 2 -11 10 -8 12 -10 10 -10 -9 0 -13 3 -21 7
-18 3 4 12 2 20 -5 11 -9 12 -7 7 7 -5 11 -3 16 2 12 5 -3 11 6 12 21 1 15 7
75 13 133 7 59 8 115 4 125 -4 11 -7 38 -6 62 2 28 -2 42 -10 42 -7 0 -10 3
-7 6 4 3 -3 26 -14 50 -11 25 -17 52 -14 60 3 8 2 12 -4 9 -5 -3 -14 4 -21 17
-15 28 -28 44 -62 78 -16 17 -23 31 -17 35 6 3 8 10 5 15 -3 5 3 11 14 15 25
8 36 35 14 35 -9 0 -27 10 -39 21 l-23 21 6 -22 c3 -12 14 -25 25 -29 18 -6
17 -8 -6 -31 -24 -21 -27 -22 -43 -7 -10 8 -39 21 -65 27 -33 9 -45 16 -41 26
3 8 9 12 13 9 4 -3 10 4 13 16 4 16 11 20 36 16 16 -3 35 -8 40 -12 14 -8 14
1 1 26 -6 10 -18 19 -26 19 -23 0 42 89 74 102 15 6 29 12 32 12 15 3 30 19
25 27 -4 5 -4 9 -1 9 8 0 36 -70 36 -90 0 -10 -7 -21 -16 -24 -8 -3 -13 -10
-9 -15 3 -6 -3 -15 -12 -21 -15 -9 -14 -10 6 -4 20 5 23 3 18 -10 -4 -11 -3
-15 4 -11 5 4 8 12 6 18 -2 6 4 18 13 27 14 14 43 126 43 166 0 7 7 11 16 9 9
-1 15 -8 13 -15 -1 -7 4 -18 13 -24 13 -9 14 -17 6 -38 -7 -20 -7 -28 4 -32 7
-2 15 -13 18 -23 2 -10 2 5 -1 32 -3 28 -5 55 -5 62 0 7 -4 10 -9 7 -12 -8
-10 20 3 33 7 7 21 8 38 3 28 -8 72 2 54 13 -5 3 -29 9 -51 13 -30 5 -42 11
-42 23 0 29 -21 43 -36 23 -18 -24 -26 -10 -30 51 -1 29 -4 57 -5 63 -4 21 2
35 11 29 6 -4 18 -1 27 7 10 8 14 8 10 1 -4 -6 -3 -14 2 -18 6 -3 8 5 5 20 -3
16 0 25 8 25 7 0 24 9 38 20 14 11 34 20 45 20 11 0 29 7 39 15 14 11 23 12
33 4 8 -7 13 -8 13 -1 0 5 16 10 35 10 19 0 35 -4 35 -9 0 -5 3 -8 8 -7 11 4
47 -25 65 -52 20 -33 7 -110 -34 -197 -29 -61 -30 -93 -2 -93 8 0 11 -5 7 -12
-4 -7 -3 -8 5 -4 8 5 7 15 -6 37 -17 29 -17 31 0 44 11 7 27 12 37 10 13 -3
17 1 13 11 -3 7 2 16 10 20 18 7 77 -22 77 -38 0 -6 2 -9 5 -7 6 7 -15 62 -53
138 -46 93 -40 118 19 77 9 -6 -7 10 -34 36 -28 26 -66 53 -85 59 -70 23 -166
-2 -290 -76 l-44 -26 8 23 c6 20 5 21 -9 9 -9 -7 -15 -17 -12 -21 3 -5 1 -12
-5 -15 -6 -4 -9 -3 -8 2 3 11 -29 70 -43 79 -8 5 -9 3 -4 -6 6 -10 2 -11 -20
-6 -31 8 -57 30 -47 40 3 4 -1 4 -11 0 -9 -3 -17 -10 -17 -15 0 -5 -5 -9 -11
-9 -6 0 -8 9 -3 23 6 21 6 21 -15 -3 -18 -21 -20 -21 -9 -3 11 19 9 25 -14 46
-29 27 -108 68 -108 57 0 -4 7 -11 16 -14 16 -6 15 -16 -13 -93 -12 -33 -21
-43 -38 -43 -18 0 -22 -4 -18 -20 3 -11 9 -17 14 -14 14 8 5 -72 -10 -90 -9
-10 -10 -16 -2 -16 6 0 11 5 11 10 0 6 7 10 16 10 9 0 14 6 12 13 -6 15 27 48
38 39 5 -4 2 1 -5 11 -12 15 -11 17 9 17 20 0 22 -4 18 -40 -2 -24 1 -41 8
-44 6 -2 11 2 10 9 0 8 4 14 9 14 24 2 8 -35 -20 -44 -21 -7 -29 -15 -27 -27
6 -31 -50 -179 -81 -215 -11 -12 -17 -26 -13 -31 3 -5 -1 -9 -8 -9 -7 0 -20
16 -29 35 -15 33 -15 35 7 57 16 16 20 28 15 47 -8 29 3 54 20 44 7 -5 9 -1 5
9 -8 21 14 73 34 79 10 2 4 4 -13 3 -29 -2 -31 -6 -68 -112 -21 -60 -44 -131
-51 -157 -14 -52 -41 -98 -57 -98 -8 0 -8 -4 0 -14 8 -10 9 -16 1 -21 -5 -3
-10 -12 -10 -18 0 -7 4 -6 11 3 10 13 10 13 6 0 -24 -80 -42 -122 -45 -106 -2
10 1 23 7 29 14 14 14 37 1 37 -5 0 -12 -11 -16 -24 -3 -14 -12 -27 -20 -30
-10 -4 -13 -2 -7 7 4 6 6 22 5 34 -2 12 1 30 7 40 5 11 6 25 1 33 -7 12 -11
12 -26 -1 -15 -12 -16 -12 -11 6 3 11 9 56 13 100 4 44 13 97 20 118 7 20 10
37 6 37 -4 0 -2 4 4 8 7 4 8 15 3 27 -4 11 -8 15 -8 8 -1 -8 -11 -9 -36 -2
-19 6 -40 7 -45 4 -6 -3 -10 -1 -10 4 0 6 -12 11 -27 11 -26 0 -27 -10 -1 -14
7 -1 19 -5 26 -9 6 -5 17 -5 24 -1 7 5 9 2 6 -7 -3 -8 1 -20 9 -28 13 -12 14
-11 8 7 -4 16 -3 20 7 17 7 -3 13 -16 13 -29 0 -15 -5 -22 -12 -19 -7 3 -13
-2 -13 -10 0 -8 6 -18 13 -20 6 -3 7 -6 2 -6 -6 -1 -9 -19 -7 -43 2 -34 1 -40
-8 -28 -9 12 -10 6 -6 -27 4 -27 2 -44 -6 -49 -6 -4 -8 -3 -4 4 3 6 2 13 -4
17 -5 3 -10 -2 -11 -12 0 -14 -3 -12 -12 7 -38 81 -80 106 -190 112 -26 2 -47
6 -47 10 0 4 -10 17 -22 28 -12 11 -23 31 -24 43 0 12 -10 38 -22 57 -12 19
-22 40 -22 47 0 23 -52 173 -60 173 -4 0 -1 -19 7 -42 8 -22 12 -47 9 -55 -9
-21 -6 -28 11 -25 10 2 13 -3 11 -15 -3 -10 4 -33 14 -50 29 -50 12 -57 -28
-13 -25 28 -34 45 -30 57 6 14 5 15 -5 6 -9 -9 -39 13 -133 104 -67 63 -122
118 -124 122 -4 11 117 61 135 55 14 -4 15 -3 4 4 -10 7 -5 11 17 14 23 3 36
-2 55 -21 13 -14 23 -34 21 -43 -1 -10 2 -18 7 -18 5 0 9 -4 9 -10 0 -5 -8 -6
-17 -3 -16 6 -16 5 -4 -10 7 -9 17 -15 21 -12 5 3 6 -5 3 -17 -3 -17 -2 -19 5
-9 5 7 12 9 14 5 3 -5 3 -2 1 6 -2 8 -6 72 -9 142 -4 115 -2 133 17 177 15 36
30 54 54 65 37 18 69 21 60 6 -8 -13 1 -13 26 0 10 6 19 7 19 2 0 -5 7 -9 15
-9 8 0 15 4 15 8 0 9 -76 40 -93 38 -6 -1 -25 -4 -42 -6z m-81 -52 c5 -7 -74
-71 -89 -71 -7 0 -58 -37 -108 -77 -16 -13 -24 -23 -18 -23 6 0 19 8 29 18 31
30 72 53 84 46 7 -5 8 -3 3 5 -5 9 0 12 16 9 16 -2 24 2 24 12 0 9 10 14 25
14 20 0 25 -5 27 -27 1 -17 -3 -27 -12 -27 -7 0 -15 -7 -19 -15 -3 -8 -17 -20
-31 -25 -21 -8 -25 -15 -21 -36 3 -15 2 -23 -2 -19 -4 3 -7 11 -7 16 0 5 -4 9
-10 9 -12 0 -14 -23 -2 -31 5 -3 -1 -9 -12 -12 -12 -3 -19 -1 -16 3 3 5 1 11
-5 15 -5 3 -10 1 -10 -4 0 -6 -6 -11 -14 -11 -8 0 -16 -4 -18 -8 -1 -4 -25
-20 -51 -36 -41 -23 -51 -26 -65 -15 -9 8 -19 15 -21 16 -2 2 4 12 14 23 16
17 16 20 3 15 -9 -4 -19 -13 -22 -21 -5 -12 -12 -11 -45 5 -21 11 -41 18 -44
15 -3 -3 -8 0 -13 7 -5 9 -1 11 14 7 12 -4 22 -2 22 3 0 15 35 45 68 60 18 8
32 20 32 26 0 7 6 13 13 13 7 0 22 8 33 18 29 27 115 73 125 66 5 -3 9 0 9 6
0 7 7 10 15 6 8 -3 15 -1 15 5 0 6 9 8 21 4 14 -5 19 -3 15 3 -3 6 0 13 6 15
20 8 36 8 42 -2z m-19 -175 c-11 -8 -23 -12 -27 -9 -5 2 -12 -6 -17 -19 -6
-13 -10 -18 -10 -11 -1 6 -4 19 -8 29 -4 11 -3 15 5 10 6 -3 13 -3 16 2 2 4
17 9 32 10 26 2 27 1 9 -12z m1028 -249 c9 -4 16 -12 15 -19 -2 -7 2 -12 9
-11 8 2 10 -4 6 -15 -10 -28 -25 -42 -37 -35 -6 3 -8 3 -4 -1 6 -7 -43 -66
-55 -66 -3 0 -5 36 -4 80 1 65 4 79 16 75 11 -4 11 -2 3 8 -7 8 -9 17 -5 21 4
4 14 -2 23 -12 8 -11 23 -22 33 -25z m-103 13 c0 -5 3 -16 7 -26 3 -10 2 -15
-3 -12 -5 4 -10 -9 -11 -27 -2 -19 1 -36 6 -39 5 -4 8 5 7 18 -2 17 1 23 10
19 8 -3 11 -10 7 -17 -4 -6 -6 -22 -4 -34 3 -23 2 -23 -27 5 -47 46 -73 113
-37 99 8 -3 15 -1 15 4 0 6 -8 10 -17 11 -15 0 -15 2 2 8 22 9 45 4 45 -9z
m-132 -7 c-9 -10 -14 -26 -13 -36 2 -9 -1 -15 -6 -11 -5 3 -9 10 -9 16 0 12
29 48 38 48 3 0 -2 -8 -10 -17z m-1032 -41 c-2 -4 -1 -14 4 -22 7 -11 12 -12
21 -3 6 6 18 9 27 5 11 -4 14 -1 10 10 -5 11 0 16 17 16 17 0 21 -5 18 -19 -3
-11 -10 -16 -17 -12 -6 4 -5 -1 2 -9 8 -10 20 -14 29 -11 11 4 14 2 9 -5 -5
-8 -2 -10 9 -6 8 4 22 1 30 -6 13 -11 14 -10 9 5 -4 10 5 5 24 -13 30 -29 35
-62 10 -62 -6 0 -8 7 -5 14 4 10 1 13 -9 9 -19 -7 -46 16 -39 35 3 10 0 12
-10 8 -18 -7 -66 10 -77 27 -6 9 -8 9 -8 0 0 -18 -48 -16 -66 2 -9 8 -11 15
-5 15 6 0 10 3 10 8 -2 12 1 22 7 22 3 0 3 -4 0 -8z m119 -11 c-3 -6 2 -14 12
-19 14 -9 13 -10 -9 -9 -22 2 -24 5 -17 20 5 9 12 17 15 17 3 0 3 -4 -1 -9z
m-468 -37 c-3 -3 -12 -4 -19 -1 -8 3 -5 6 6 6 11 1 17 -2 13 -5z m-32 -42 c0
-9 -5 -24 -10 -32 -5 -8 -10 -21 -11 -27 -3 -17 -34 -47 -34 -33 0 6 -4 8 -10
5 -5 -3 -10 -1 -10 5 0 7 6 10 14 7 8 -3 17 1 20 9 4 10 1 13 -7 9 -6 -4 -4 0
7 9 11 9 16 22 12 31 -3 9 -2 13 4 10 6 -3 10 1 10 9 0 9 4 16 8 16 5 0 8 -8
7 -18z m1721 -15 c-3 -12 -5 -25 -5 -29 -1 -4 -7 -5 -15 -2 -14 6 -15 16 -1
46 10 24 26 12 21 -15z m-228 -40 c-6 -17 -15 -38 -21 -44 -5 -7 -7 -20 -3
-28 3 -9 2 -13 -4 -10 -6 3 -13 -1 -16 -10 -4 -9 -13 -14 -21 -11 -8 3 -11 2
-8 -3 3 -5 1 -12 -5 -16 -11 -7 -13 5 -4 29 3 8 11 13 19 10 9 -4 11 2 8 20
-9 43 5 79 27 73 11 -3 19 -2 18 2 -2 19 3 31 11 26 6 -3 6 -18 -1 -38z m677
23 c3 -5 -1 -10 -10 -10 -9 0 -13 5 -10 10 3 6 8 10 10 10 2 0 7 -4 10 -10z
m-1535 -35 c7 -8 16 -13 20 -10 4 3 14 -3 21 -13 13 -16 13 -16 -5 -2 -18 14
-19 13 -12 -5 l7 -20 -18 20 c-10 11 -24 26 -32 33 -8 6 -10 12 -4 12 6 0 16
-7 23 -15z m1060 -5 c-19 -13 -30 -13 -30 0 0 6 10 10 23 10 18 0 19 -2 7 -10z
m-187 -26 c-9 -15 -19 -22 -21 -16 -2 6 3 18 10 26 22 25 30 18 11 -10z m-978
-2 c-3 -3 -11 0 -18 7 -9 10 -8 11 6 5 10 -3 15 -9 12 -12z m-589 -22 c8 0 14
-4 14 -10 0 -5 -5 -10 -11 -10 -5 0 -8 -4 -4 -9 3 -5 -14 -51 -36 -101 -29
-63 -46 -89 -56 -86 -8 3 -17 -3 -22 -16 l-8 -22 -5 22 c-4 12 -2 22 4 22 6 0
7 7 4 16 -4 10 -2 13 7 7 18 -11 37 -12 37 -2 0 5 -7 9 -15 9 -8 0 -15 4 -15
9 0 5 -3 18 -6 28 -3 10 1 8 11 -7 14 -22 15 -23 10 -3 -7 27 11 39 32 21 12
-9 15 -9 9 0 -4 7 -2 12 5 12 7 0 9 3 6 7 -4 3 -2 12 5 20 8 11 7 12 -6 7 -9
-3 -16 -14 -16 -23 0 -14 -2 -14 -10 -1 -14 21 -12 30 5 30 8 0 15 5 15 11 0
5 -4 7 -10 4 -6 -3 -7 1 -4 9 3 9 10 16 16 16 5 0 7 4 3 10 -3 5 0 18 7 30 7
11 14 16 16 10 2 -5 10 -10 18 -10z m1779 10 c3 -5 1 -10 -6 -10 -7 0 -8 -4
-2 -12 12 -17 15 -79 5 -96 -6 -9 -14 -1 -27 28 -10 22 -22 40 -27 40 -5 0 -8
10 -6 23 2 14 9 21 20 21 10 -1 15 2 12 7 -3 5 2 9 10 9 8 0 18 -4 21 -10z
m-1647 -45 c-3 -3 -9 2 -12 12 -6 14 -5 15 5 6 7 -7 10 -15 7 -18z m122 21 c0
-2 -8 -10 -17 -17 -16 -13 -17 -12 -4 4 13 16 21 21 21 13z m1446 -45 c0 -11
-4 -18 -7 -15 -4 2 -10 0 -14 -6 -3 -5 -13 -10 -22 -10 -13 0 -13 3 -3 15 7 8
17 12 23 8 6 -4 8 0 4 10 -4 10 -1 17 6 17 7 0 13 -9 13 -19z m-1336 -16 c0
-2 -6 -5 -13 -8 -8 -3 -14 1 -14 8 0 7 6 11 14 8 7 -3 13 -6 13 -8z m-110 -36
c0 -5 -5 -7 -10 -4 -7 4 -8 -7 -5 -32 4 -21 7 -46 9 -55 1 -10 6 -21 10 -25 5
-4 6 4 2 20 -3 15 -2 27 3 27 5 0 11 -10 13 -22 3 -23 48 -40 48 -19 0 6 -10
11 -22 12 -21 1 -21 2 5 12 27 11 39 29 15 23 -7 -1 -10 -1 -6 1 4 2 4 11 1
19 -4 12 -8 12 -19 -3 -13 -17 -14 -17 -7 2 3 11 11 27 17 36 9 14 13 14 24 3
7 -8 9 -14 4 -14 -5 0 -9 -7 -9 -15 0 -10 6 -14 14 -10 8 3 17 5 19 5 3 0 2 5
-1 10 -3 6 0 10 7 10 9 0 9 3 -2 10 -8 5 -10 10 -5 10 6 0 16 -4 23 -9 11 -7
11 -11 -2 -23 -8 -9 -12 -19 -8 -22 3 -4 -1 -4 -11 0 -10 3 -17 1 -17 -5 0
-10 13 -15 32 -12 3 0 5 -16 3 -37 -3 -34 -2 -35 11 -18 8 11 14 15 14 10 0
-6 -6 -19 -14 -30 -14 -18 -15 -18 -21 -1 -8 19 -45 23 -46 5 0 -10 -2 -10 -6
-1 -6 17 -32 -7 -26 -24 3 -7 0 -13 -5 -13 -6 0 -9 13 -7 30 3 25 1 29 -15 27
-11 -2 -23 -6 -26 -10 -4 -4 -13 -2 -20 4 -8 7 -14 7 -19 -1 -4 -7 2 -14 14
-17 12 -3 21 -12 21 -19 0 -11 -4 -12 -19 -3 -23 15 -46 50 -30 47 6 -2 13 8
15 21 6 33 13 39 25 21 7 -11 8 -4 3 22 -3 21 -4 45 0 53 6 17 26 20 26 4z
m704 5 c9 -3 16 -10 16 -16 0 -5 -5 -6 -12 -2 -7 4 -8 3 -4 -4 5 -9 13 -9 27
-2 10 6 19 7 18 3 -3 -19 2 -34 9 -29 11 6 3 -86 -8 -97 -4 -5 -18 6 -31 25
-13 18 -27 35 -31 36 -5 2 -5 8 -2 14 3 5 -2 16 -12 23 -17 13 -17 16 -4 25
13 9 13 11 0 20 -13 8 -13 10 2 10 9 0 23 -3 32 -6z m-857 -19 c0 -8 -4 -15
-9 -15 -4 0 -8 7 -8 15 0 8 4 15 8 15 5 0 9 -7 9 -15z m183 -16 c0 -5 -7 -9
-15 -9 -15 0 -20 12 -9 23 8 8 24 -1 24 -14z m124 -18 c4 -5 3 -17 0 -26 -5
-13 -8 -14 -15 -3 -5 7 -9 19 -9 26 0 14 16 16 24 3z m-318 -17 c-9 -8 -14
-19 -11 -24 3 -5 1 -11 -4 -15 -6 -3 -8 4 -6 17 3 12 -1 26 -8 30 -7 5 -1 8
16 8 26 0 27 -1 13 -16z m967 -19 c-3 -9 -8 -14 -10 -11 -3 3 -2 9 2 15 9 16
15 13 8 -4z m-7 -50 c-9 -9 -16 -13 -16 -8 0 12 22 34 28 28 2 -2 -3 -11 -12
-20z m-1150 -31 c-6 -16 -26 -19 -26 -3 0 5 5 7 10 4 6 -4 11 6 11 22 1 18 3
22 6 10 3 -10 2 -25 -1 -33z m360 17 c-3 -5 1 -25 9 -44 8 -19 11 -38 7 -42
-4 -5 1 -5 11 -2 12 5 17 1 17 -14 l0 -20 -22 20 c-20 19 -22 19 -35 3 -10
-13 -13 -14 -11 -2 2 8 7 18 12 22 5 3 11 14 12 23 2 12 -1 13 -10 6 -7 -6
-16 -8 -19 -4 -4 3 -7 -2 -8 -13 0 -17 -1 -16 -9 4 -5 12 -15 22 -21 22 -9 0
-9 -3 0 -14 17 -20 7 -61 -15 -63 -14 -2 -15 -1 -4 5 18 8 23 44 8 53 -19 12
2 29 27 23 20 -5 27 -1 35 20 5 14 12 26 15 26 4 0 4 -4 1 -9z m108 -17 c3 -8
1 -14 -4 -14 -5 0 -7 -6 -4 -14 3 -8 0 -17 -7 -22 -8 -4 -10 -3 -5 4 4 7 2 12
-4 12 -7 0 -9 9 -5 23 5 17 4 19 -4 7 -12 -17 -14 -10 -5 14 7 17 30 11 38
-10z m1119 11 c-3 -9 -8 -14 -10 -11 -3 3 -2 9 2 15 9 16 15 13 8 -4z m-1175
-42 c-8 -10 -7 -12 4 -8 11 5 16 -1 16 -20 0 -14 -5 -28 -11 -32 -6 -4 -8 0
-4 10 4 11 0 21 -12 29 -16 9 -17 16 -8 35 7 17 13 20 18 11 4 -7 3 -18 -3
-25z m749 10 c-4 -3 -1 -13 6 -22 11 -14 10 -14 -5 -2 -16 12 -16 31 -1 31 4
0 3 -3 0 -7z m100 -45 c-3 -7 -5 -2 -5 12 0 14 2 19 5 13 2 -7 2 -19 0 -25z
m-1340 -10 c-3 -7 -5 -2 -5 12 0 14 2 19 5 13 2 -7 2 -19 0 -25z m105 7 c-2
-14 -8 -25 -13 -25 -5 0 -6 7 -3 15 4 9 0 15 -7 15 -11 0 -11 3 1 10 23 15 28
12 22 -15z m246 2 c5 -23 -15 -21 -28 2 -8 16 -7 19 8 17 9 -2 18 -10 20 -19z
m1409 -31 c4 -4 1 -6 -7 -4 -8 2 -14 -3 -12 -9 2 -15 -5 -15 -33 -3 -17 7 -17
9 -2 9 9 1 17 5 17 10 0 11 26 9 37 -3z m-1750 -14 c0 -10 -7 -19 -14 -19 -9
0 -10 4 -3 12 5 7 7 15 3 18 -3 4 -1 7 5 7 6 0 10 -8 9 -18z m1691 -12 c15 0
15 -2 2 -10 -8 -5 -24 -9 -35 -9 -11 0 -14 3 -7 6 6 2 12 12 13 21 0 11 2 12
6 5 2 -7 12 -13 21 -13z m99 -8 c9 -6 4 -13 -17 -26 -17 -9 -30 -14 -30 -10 0
3 -8 0 -17 -7 -10 -7 -4 1 12 19 33 35 34 35 52 24z m-1327 -9 c0 -4 -9 -23
-20 -41 -18 -29 -23 -31 -41 -21 -15 8 -19 8 -15 0 4 -6 2 -11 -4 -11 -6 0 -8
-5 -5 -11 4 -6 13 -8 21 -5 7 3 16 0 20 -6 4 -7 3 -8 -4 -4 -7 4 -12 3 -12 -2
0 -5 -6 -9 -14 -9 -8 0 -14 5 -13 11 1 6 -6 10 -16 9 -12 0 -16 4 -13 12 3 8
0 15 -6 17 -7 3 -8 10 -4 17 7 10 10 10 16 1 5 -8 13 -9 24 -3 16 9 16 11 1
23 -13 11 -18 10 -33 -3 -13 -12 -22 -13 -36 -5 -15 8 -16 12 -5 19 8 5 19 9
24 9 6 0 3 -5 -5 -10 -10 -7 -11 -10 -2 -10 7 0 15 6 18 13 5 15 124 24 124
10z m-460 -19 c0 -8 -5 -12 -10 -9 -6 4 -8 11 -5 16 9 14 15 11 15 -7z m1862
2 c6 4 6 -1 -1 -13 -8 -17 -6 -22 14 -31 14 -7 25 -19 25 -27 0 -9 4 -13 10
-10 6 3 7 -1 4 -9 -4 -9 -1 -16 6 -16 9 0 9 -4 -1 -17 -12 -14 -12 -16 0 -8
11 6 13 4 8 -8 -3 -9 -2 -19 2 -22 5 -2 11 -14 14 -25 3 -11 1 -18 -3 -15 -5
3 -7 -9 -5 -27 l4 -33 -19 25 c-15 19 -20 21 -20 8 0 -9 4 -19 9 -22 11 -7 9
-25 -7 -51 -14 -24 -15 -15 -2 19 14 39 -7 42 -24 4 -10 -22 -15 -27 -15 -14
-1 15 -4 16 -16 6 -12 -10 -15 -10 -15 0 0 7 -7 10 -15 6 -8 -3 -15 -2 -15 3
0 5 -18 11 -40 15 -23 3 -43 12 -46 20 -3 8 -15 11 -28 9 -13 -3 -26 0 -30 5
-7 12 44 51 60 45 6 -2 17 4 25 13 13 16 12 17 -8 12 -16 -4 -20 -2 -16 8 7
18 15 18 39 -2 13 -11 15 -17 6 -20 -6 -3 -9 -10 -6 -15 3 -6 12 -2 20 8 14
17 15 16 9 -7 -4 -17 -3 -21 3 -11 5 7 15 10 21 7 6 -4 11 -3 11 2 0 14 -58
62 -76 62 -8 0 -13 4 -10 9 3 4 -5 7 -19 6 -16 -2 -22 1 -19 10 3 7 0 16 -7
21 -8 4 -10 3 -5 -4 4 -7 2 -12 -3 -12 -19 0 -12 -22 9 -27 11 -3 20 -9 20
-14 0 -5 -8 -6 -17 -3 -15 5 -16 4 -3 -5 26 -19 -16 -41 -79 -41 -48 0 -53 2
-36 13 12 9 15 19 10 28 -5 8 -5 11 0 7 4 -4 14 0 21 10 12 16 13 15 14 -5 0
-13 -4 -23 -10 -23 -5 0 -10 -6 -10 -12 1 -7 10 -2 20 11 11 13 20 19 20 15 0
-5 5 -1 11 10 8 13 8 20 1 25 -7 4 -8 12 -2 21 9 13 10 13 10 0 1 -12 2 -12
10 1 7 12 22 16 46 15 19 -1 38 3 41 8 4 5 1 6 -5 2 -7 -4 -12 -1 -12 9 0 15
5 14 38 -5 20 -12 31 -16 25 -9 -18 18 -16 30 2 23 8 -4 15 -14 16 -23 1 -9 4
-5 8 9 4 15 3 29 -3 33 -7 6 -4 7 7 3 9 -3 17 -1 17 4 0 6 -8 10 -17 10 -15 0
-16 2 -3 10 10 6 16 6 18 0 2 -6 8 -7 14 -4z m-1492 -16 c0 -5 -2 -10 -4 -10
-3 0 -8 5 -11 10 -3 6 -1 10 4 10 6 0 11 -4 11 -10z m-150 -4 c0 -3 -4 -8 -10
-11 -5 -3 -10 -1 -10 4 0 6 5 11 10 11 6 0 10 -2 10 -4z m-220 -46 c0 -5 -5
-10 -11 -10 -5 0 -7 5 -4 10 3 6 8 10 11 10 2 0 4 -4 4 -10z m540 -28 c-10 -4
-10 -6 0 -12 8 -5 10 -15 5 -26 -7 -17 -8 -17 -12 -2 -2 9 -10 15 -18 12 -8
-3 -22 -1 -31 4 -16 9 -15 11 7 23 13 7 27 13 31 14 3 0 10 4 14 8 5 5 10 3
13 -4 2 -7 -2 -15 -9 -17z m-596 -57 c4 -43 3 -65 -2 -56 -9 12 -17 139 -8
130 2 -2 7 -35 10 -74z m126 61 c0 -8 -7 -16 -15 -20 -13 -4 -14 -2 -5 14 13
23 20 26 20 6z m70 4 c0 -5 -2 -10 -4 -10 -3 0 -8 5 -11 10 -3 6 -1 10 4 10 6
0 11 -4 11 -10z m85 1 c3 -5 1 -12 -5 -16 -5 -3 -10 1 -10 9 0 18 6 21 15 7z
m-232 -22 c-8 -8 -13 -7 -18 2 -5 8 -4 10 3 5 7 -4 12 -2 12 5 0 7 3 9 7 6 4
-4 2 -12 -4 -18z m1624 5 c-3 -3 -12 -4 -19 -1 -8 3 -5 6 6 6 11 1 17 -2 13
-5z m-1357 -14 c0 -5 -4 -10 -10 -10 -5 0 -10 5 -10 10 0 6 5 10 10 10 6 0 10
-4 10 -10z m67 -12 c-3 -8 -6 -5 -6 6 -1 11 2 17 5 13 3 -3 4 -12 1 -19z m20
0 c-3 -8 -6 -5 -6 6 -1 11 2 17 5 13 3 -3 4 -12 1 -19z m95 -12 c7 4 8 2 4 -4
-4 -6 -14 -9 -24 -6 -14 5 -14 3 2 -6 15 -10 16 -14 5 -21 -8 -5 -21 -9 -29
-9 -12 0 -13 2 -1 9 7 5 11 14 7 20 -4 6 -1 17 6 25 11 12 13 12 16 0 2 -8 8
-11 14 -8z m48 4 c0 -5 -8 -10 -17 -10 -15 0 -16 2 -3 10 19 12 20 12 20 0z
m-443 -14 c-3 -8 -1 -17 6 -19 9 -3 8 -8 -2 -18 -8 -8 -11 -9 -7 -2 3 6 2 14
-3 18 -10 5 -4 35 6 35 3 0 3 -6 0 -14z m228 -13 c3 -13 3 -27 1 -32 -3 -4 6
-15 19 -25 14 -10 22 -22 20 -26 -3 -4 11 -16 31 -26 20 -11 50 -27 68 -36 17
-9 40 -17 52 -18 31 0 58 -24 51 -44 -4 -10 -2 -26 3 -37 6 -10 7 -19 3 -19
-4 0 -25 -4 -45 -9 -25 -6 -36 -5 -32 1 4 6 -2 8 -16 3 -30 -9 -68 29 -50 50
13 16 12 16 -32 19 -20 1 -40 26 -21 26 5 0 15 -6 22 -12 11 -11 11 -9 0 9 -9
15 -17 19 -23 13 -14 -14 -32 -12 -50 6 -18 18 -22 39 -4 28 8 -5 9 0 3 17 -4
13 -8 43 -10 67 -2 46 -15 71 -15 31 0 -26 -17 -49 -34 -49 -6 0 -3 5 7 11 20
12 23 31 3 23 -8 -3 -17 -1 -21 5 -3 7 2 11 14 11 14 0 21 6 21 18 0 27 28 23
35 -5z m237 9 c-7 -2 -12 -11 -12 -19 0 -11 6 -14 21 -10 16 4 18 3 9 -8 -7
-8 -10 -18 -7 -22 2 -4 1 -17 -4 -28 -6 -16 -8 -14 -8 13 -1 21 -6 32 -15 32
-12 0 -13 6 -5 30 7 18 15 27 22 23 8 -5 8 -8 -1 -11z m-485 -42 c-3 -11 -1
-20 5 -20 6 0 8 -9 5 -20 -3 -11 0 -20 6 -20 6 0 8 -2 5 -5 -3 -3 -13 -3 -22
1 -19 7 -23 84 -5 84 6 0 9 -9 6 -20z m413 -10 c0 -5 -4 -10 -10 -10 -5 0 -10
5 -10 10 0 6 5 10 10 10 6 0 10 -4 10 -10z m377 -35 c0 -8 -4 -12 -9 -9 -5 3
-6 10 -3 15 9 13 12 11 12 -6z m1144 -8 c-10 -9 -11 -8 -5 6 3 10 9 15 12 12
3 -3 0 -11 -7 -18z m-1926 -95 c25 -22 45 -46 45 -53 0 -11 3 -11 11 1 8 11
12 12 16 2 2 -6 10 -9 15 -6 6 4 8 2 5 -3 -9 -14 13 -76 29 -86 7 -4 29 -42
49 -85 20 -42 52 -98 71 -125 19 -26 35 -53 37 -60 1 -6 10 -18 19 -25 15 -11
15 -15 2 -42 -9 -16 -19 -32 -23 -35 -9 -5 -67 83 -63 96 1 5 -2 9 -8 9 -5 0
-10 8 -10 18 0 10 -7 27 -16 38 -14 18 -15 18 -9 -6 4 -14 22 -57 41 -96 19
-40 34 -75 34 -78 0 -3 -9 -6 -20 -6 -13 0 -29 14 -43 37 -24 41 -27 64 -12
76 6 5 1 7 -10 5 -18 -3 -20 -11 -20 -69 0 -59 -2 -65 -17 -56 -9 6 -14 15
-12 19 3 4 0 8 -6 8 -6 0 -8 5 -5 10 3 6 1 10 -5 10 -7 0 -10 7 -6 15 3 9 0
15 -10 15 -8 0 -12 5 -9 10 3 6 2 10 -3 10 -5 0 -15 15 -23 33 -7 17 -16 34
-20 37 -10 8 -40 70 -34 70 3 0 -2 14 -11 31 -8 17 -11 28 -6 25 6 -4 13 -2
17 4 3 5 1 10 -4 10 -6 0 -11 5 -11 11 0 6 -7 17 -15 25 -17 17 -21 74 -5 74
12 0 8 45 -5 57 -4 5 -5 2 0 -6 5 -10 4 -12 -4 -7 -6 4 -11 26 -11 49 -1 66
-4 86 -12 81 -4 -3 -8 -3 -8 0 0 2 -3 12 -7 22 -5 12 -3 15 6 9 10 -6 12 -1 7
16 -4 15 1 10 13 -12 11 -20 41 -55 66 -77z m425 95 c0 -8 -7 -14 -15 -14 -11
0 -12 4 -4 14 6 7 13 13 15 13 2 0 4 -6 4 -13z m1507 -29 c-2 -7 0 -21 5 -30
8 -17 0 -23 -24 -19 -5 0 -8 -7 -9 -16 0 -11 -3 -13 -6 -5 -2 6 -9 10 -14 6
-5 -3 -9 0 -9 5 0 6 4 11 9 11 5 0 12 14 16 30 4 17 13 30 22 30 8 0 13 -6 10
-12z m-1478 -14 c4 3 13 0 21 -5 11 -7 9 -8 -9 -6 -14 2 -26 9 -27 16 -1 6 0
7 3 1 2 -5 8 -8 12 -6z m1298 -26 c2 -18 0 -20 -7 -8 -12 18 -13 30 -2 30 4 0
9 -10 9 -22z m-1530 -4 c-3 -3 -12 -4 -19 -1 -8 3 -5 6 6 6 11 1 17 -2 13 -5z
m1463 -35 c0 -5 -4 -9 -8 -9 -5 0 -9 7 -9 15 0 8 4 12 9 9 4 -3 8 -9 8 -15z
m-1417 -7 c15 -17 15 -18 -6 -19 -12 0 -16 1 -9 4 10 4 10 8 1 19 -17 20 -5
17 14 -4z m261 7 c-3 -5 0 -19 7 -31 12 -22 12 -22 20 -3 7 18 8 18 8 2 1 -18
-21 -47 -34 -47 -4 0 -5 9 -2 19 2 10 0 25 -5 32 -8 11 -9 11 -5 -2 3 -9 2
-22 -3 -29 -4 -7 -7 4 -6 27 0 24 6 40 13 40 7 0 10 -4 7 -8z m1346 -40 c0 -6
-7 -8 -17 -5 -15 6 -15 5 1 -13 17 -19 17 -21 2 -27 -9 -4 -20 -4 -23 0 -4 3
-1 6 6 6 8 0 9 5 2 19 -6 10 -7 21 -4 25 10 10 33 7 33 -5z m-472 -56 c8 -38
9 -59 2 -61 -6 -2 -8 -8 -4 -13 3 -5 -1 -9 -8 -9 -17 0 -64 113 -49 118 6 2 9
8 5 13 -3 5 5 9 18 9 21 0 25 -7 36 -57z m524 14 c-5 -7 -8 -20 -7 -29 2 -10
-1 -18 -6 -18 -5 0 -9 5 -9 11 0 8 -5 8 -15 -1 -8 -7 -15 -9 -15 -5 0 4 11 16
25 27 14 11 25 27 26 36 0 11 2 13 6 4 3 -7 1 -18 -5 -25z m-1747 -27 c-4 -6
-1 -9 7 -8 8 2 13 -7 12 -24 0 -15 3 -25 7 -22 10 6 20 -26 12 -38 -3 -7 -1
-8 5 -4 8 4 12 0 12 -10 0 -28 20 -2 25 32 5 28 5 28 -11 9 -16 -19 -16 -19
-10 9 6 23 4 27 -8 23 -9 -4 -18 -1 -22 5 -4 7 -3 8 4 4 7 -4 12 -1 12 9 0 9
-4 14 -9 11 -10 -6 -25 24 -16 32 3 3 5 -1 5 -9 0 -11 2 -11 10 1 5 8 10 10
10 5 0 -7 61 -11 180 -10 180 1 198 -3 168 -33 -17 -17 -20 -46 -4 -33 13 11
26 5 26 -11 0 -12 -68 -10 -75 3 -4 6 -1 16 7 22 7 7 11 11 9 9 -2 -1 -13 6
-24 15 -19 18 -19 17 -12 -40 6 -50 5 -57 -10 -57 -11 0 -15 -5 -12 -14 3 -8
-1 -17 -9 -20 -10 -4 -13 -1 -8 7 3 6 -10 -5 -29 -25 -42 -44 -61 -49 -55 -13
6 27 -9 35 -18 10 -8 -21 -21 -19 -34 4 -8 16 -7 20 7 20 45 2 63 6 63 13 0 8
-23 12 -49 9 -7 -2 -10 2 -6 8 4 7 -4 11 -19 11 -14 0 -28 5 -32 12 -4 6 -3 8
3 5 6 -4 14 1 17 10 4 10 4 14 0 10 -4 -4 -12 -2 -19 3 -12 10 -13 6 -18 -43
-2 -26 -33 -31 -59 -10 -8 7 -19 9 -24 5 -4 -4 -2 1 5 11 9 11 10 17 2 17 -6
0 -11 14 -11 30 0 19 -5 29 -12 28 -8 -2 -12 5 -10 16 2 10 -1 15 -6 12 -6 -3
-8 2 -5 14 5 17 7 17 20 5 8 -8 11 -19 8 -25z m1310 -62 c4 -15 11 -30 16 -33
13 -9 11 -42 -3 -47 -7 -3 -24 -2 -38 2 -21 5 -26 14 -32 50 -3 25 -2 60 4 79
l10 33 19 -28 c10 -16 21 -41 24 -56z m-818 60 c-2 -7 -10 -12 -16 -10 -6 1
-11 -3 -11 -10 0 -9 -3 -9 -12 0 -10 10 -10 15 2 22 21 14 42 12 37 -2z m884
-31 c-8 -8 -14 -7 -23 2 -11 10 -9 11 6 5 15 -6 17 -4 11 6 -6 9 -4 11 4 5 9
-5 10 -10 2 -18z m179 3 c-6 -11 -13 -20 -16 -20 -2 0 0 9 6 20 6 11 13 20 16
20 2 0 0 -9 -6 -20z m-910 -5 c0 -1 -6 -7 -13 -13 -10 -8 -13 -6 -13 7 0 11 6
17 13 14 7 -3 13 -6 13 -8z m685 -5 c3 -5 1 -10 -4 -10 -6 0 -11 5 -11 10 0 6
2 10 4 10 3 0 8 -4 11 -10z m-816 -13 c-2 -1 -13 -9 -24 -17 -19 -14 -19 -14
-6 3 7 9 18 17 24 17 6 0 8 -1 6 -3z m4 -28 c-6 -6 -9 -18 -6 -25 3 -9 -2 -14
-13 -14 -12 0 -15 -3 -8 -8 9 -5 8 -11 -2 -20 -11 -10 -14 -10 -15 0 -3 36 21
78 45 78 6 0 6 -4 -1 -11z m-86 -44 c0 -10 -5 -11 -19 -4 -10 5 -18 14 -18 20
0 6 -5 7 -12 3 -7 -4 -8 -3 -4 4 9 15 53 -4 53 -23z m1076 21 c7 3 4 -1 -5 -8
-11 -10 -14 -19 -7 -29 6 -10 9 -10 9 -1 0 24 31 11 68 -29 58 -64 69 -86 53
-101 -11 -10 -12 -10 -7 0 7 11 -13 18 -39 12 -27 -5 -30 -4 -27 9 2 8 -3 11
-13 8 -20 -8 -19 -1 5 33 16 22 17 30 8 36 -7 4 -10 3 -5 -1 9 -10 -33 -56
-44 -49 -5 3 -9 1 -9 -4 0 -5 20 -28 45 -51 42 -38 59 -61 35 -46 -5 3 -10 -1
-10 -10 0 -9 -4 -14 -9 -10 -5 3 -12 1 -16 -5 -8 -12 -45 -13 -45 -1 0 5 5 11
12 13 6 2 12 12 14 21 1 9 -2 15 -7 11 -5 -3 -7 -10 -3 -16 3 -5 -2 -9 -12 -8
-43 5 -51 1 -46 -25 3 -18 0 -25 -11 -25 -11 0 -14 8 -12 28 1 15 -2 31 -9 35
-6 5 0 5 13 2 16 -5 21 -4 17 4 -4 6 -15 11 -24 11 -14 0 -15 2 -3 9 12 8 12
14 4 33 l-12 23 -1 -25 c-1 -25 -1 -25 -12 -3 -8 17 -6 26 11 45 20 21 22 21
16 3 -6 -18 -5 -18 5 -2 6 9 8 22 5 27 -3 5 0 7 9 4 11 -4 13 0 9 15 -4 15 -1
21 12 21 11 0 15 5 11 15 -3 8 -2 23 1 32 4 11 8 13 11 5 2 -7 9 -10 15 -6z
m-907 -9 c4 -4 3 -8 -2 -8 -40 -6 -55 -5 -61 4 -3 6 -1 7 5 3 6 -3 13 -2 16 3
7 10 31 9 42 -2z m-522 -57 c5 0 5 7 2 16 -6 14 -4 15 9 4 13 -11 13 -15 3
-22 -10 -7 -9 -12 7 -21 30 -18 75 -64 75 -76 0 -6 -7 -11 -16 -11 -8 0 -12
-4 -9 -10 3 -6 -1 -7 -9 -4 -9 3 -16 10 -16 15 0 5 -5 8 -11 7 -6 -2 -16 6
-22 17 -7 11 -16 23 -22 27 -5 4 -6 8 -2 8 5 0 1 7 -7 16 -9 8 -14 20 -10 25
3 5 0 8 -8 7 -7 -2 -13 4 -13 12 0 8 -4 22 -9 30 -5 8 4 3 21 -12 16 -16 33
-28 37 -28z m329 26 c3 3 3 -5 -1 -18 -5 -18 -7 -19 -10 -5 -2 9 -8 17 -13 17
-5 0 -9 5 -9 11 0 8 4 9 13 0 8 -6 16 -8 20 -5z m-128 -76 c0 -41 -4 -60 -12
-60 -7 0 -13 5 -13 12 0 6 -3 8 -7 5 -7 -8 -33 11 -33 25 0 5 4 6 10 3 6 -3 7
1 4 9 -3 9 -1 16 5 16 6 0 17 11 23 25 17 39 23 30 23 -35z m175 51 c0 -5 -7
-11 -14 -14 -10 -4 -13 -1 -9 9 6 15 23 19 23 5z m494 -12 c-3 -5 -9 -7 -14
-4 -4 3 -13 -2 -20 -10 -10 -12 -16 -13 -27 -3 -12 10 -9 13 19 23 35 12 52
10 42 -6z m-69 -39 c4 -11 11 -17 17 -14 7 5 8 2 2 -7 -5 -8 -9 -17 -9 -21 0
-13 -20 -4 -20 9 0 6 -5 15 -10 20 -6 4 -7 4 -3 -1 4 -5 3 -15 -3 -23 -9 -9
-8 -13 0 -13 6 0 11 -5 11 -11 0 -6 -7 -8 -16 -5 -8 3 -12 2 -9 -3 3 -6 -3
-14 -12 -20 -17 -10 -17 -10 2 -11 17 0 17 -2 5 -10 -10 -6 -11 -10 -2 -10 6
0 12 -5 12 -11 0 -5 -5 -7 -10 -4 -6 4 -18 1 -26 -6 -13 -10 -14 -8 -9 19 10
61 46 142 62 142 6 0 15 -9 18 -20z m884 -6 c-6 -7 -15 -11 -20 -8 -5 3 -3 11
4 18 16 18 31 8 16 -10z m25 -5 c-5 -9 1 -10 22 -4 45 11 74 13 69 4 -3 -4 -1
-10 5 -14 5 -3 10 -1 10 4 0 6 6 11 13 11 15 0 11 -57 -5 -77 -6 -7 -8 -20 -4
-28 9 -24 -4 -17 -15 8 -8 19 -9 17 -5 -13 3 -19 2 -29 -1 -22 -5 13 -24 17
-22 5 4 -27 -2 -33 -20 -23 -26 13 -34 13 -25 -2 4 -7 3 -8 -4 -4 -6 4 -9 13
-6 20 3 8 0 17 -7 22 -8 4 -10 3 -5 -4 4 -7 2 -12 -4 -12 -7 0 -14 9 -17 20
-3 11 -9 17 -14 14 -9 -5 -8 1 12 51 11 27 14 36 18 50 0 3 4 5 7 5 3 0 2 -5
-2 -11z m-1339 -19 c27 -10 27 -11 10 -30 -23 -26 -41 -25 -41 0 0 11 5 20 10
20 5 0 1 7 -10 16 -10 8 -14 13 -8 10 6 -3 24 -10 39 -16z m1261 -93 c27 -50
0 -62 -49 -21 -35 30 -40 46 -24 81 l11 24 23 -28 c13 -15 30 -41 39 -56z
m-1346 63 c0 -5 -5 -10 -11 -10 -5 0 -7 5 -4 10 3 6 8 10 11 10 2 0 4 -4 4
-10z m-133 -32 c20 -18 44 -40 54 -50 10 -9 19 -15 21 -13 2 2 21 -23 41 -56
30 -48 34 -59 20 -57 -11 2 -17 -2 -15 -10 4 -19 -36 4 -70 40 -16 16 -28 27
-28 23 0 -3 -6 0 -14 7 -8 7 -11 17 -8 22 3 5 0 6 -5 3 -11 -7 -73 56 -73 73
0 15 23 50 33 50 4 0 24 -15 44 -32z m36 20 c12 -7 23 -13 23 -13 1 0 4 -11 8
-25 3 -14 3 -19 0 -12 -3 6 -10 10 -14 7 -5 -3 -16 5 -25 17 -8 13 -19 22 -22
20 -4 -2 -9 1 -11 7 -5 15 13 14 41 -1z m95 -37 c11 -7 11 -9 -1 -14 -9 -3
-18 1 -21 9 -6 16 2 18 22 5z m-18 -198 l61 -42 -25 -16 c-14 -10 -32 -15 -40
-12 -7 3 -18 1 -24 -5 -6 -6 -20 -7 -33 -2 -13 4 -32 7 -42 5 -9 -1 -20 6 -24
16 -4 10 -11 21 -17 25 -6 4 -11 11 -11 15 -1 16 -20 40 -37 46 -12 4 -16 12
-11 24 3 10 3 15 -2 11 -4 -4 -14 0 -23 8 -13 14 -13 17 -1 25 9 6 10 9 2 9
-7 0 -10 6 -8 13 2 6 9 25 15 41 l11 29 73 -74 c41 -41 102 -94 136 -116z
m1140 172 c0 -8 -4 -15 -10 -15 -5 0 -10 7 -10 15 0 8 5 15 10 15 6 0 10 -7
10 -15z m301 -37 c7 -14 5 -16 -12 -13 -12 3 -24 7 -28 11 -3 4 3 4 14 1 19
-7 19 -6 3 7 -10 7 -18 22 -18 32 1 18 1 18 16 -1 9 -11 20 -28 25 -37z
m-1225 9 c1 -9 -2 -15 -7 -11 -5 3 -9 0 -9 -6 0 -7 -7 -9 -16 -6 -12 4 -15 2
-10 -9 3 -8 1 -15 -4 -15 -5 0 -12 10 -15 21 -8 23 11 42 33 34 8 -3 10 0 6 6
-4 7 -1 10 6 7 7 -2 14 -12 16 -21z m254 -16 c0 -10 -41 -43 -47 -38 -1 2 0
13 4 25 5 21 43 32 43 13z m-330 -28 c0 -45 -10 -51 -69 -44 -8 0 -11 7 -7 17
3 8 2 13 -3 10 -5 -3 -16 5 -25 19 l-16 25 60 0 c59 0 60 -1 60 -27z m161 -53
c8 -6 4 -33 -9 -57 -10 -17 -11 -17 -18 0 -6 17 -7 16 -21 -3 -11 -16 -18 -18
-28 -10 -8 6 -12 17 -9 25 3 7 0 16 -6 20 -15 9 18 47 34 38 6 -3 8 -3 4 2 -4
4 -3 14 3 22 10 11 15 9 27 -9 9 -13 19 -25 23 -28z m166 14 c-4 -4 -17 -2
-29 5 -13 6 -15 9 -5 7 9 -3 17 0 17 6 0 9 3 9 12 0 6 -6 9 -15 5 -18z m-704
-37 c-3 -5 21 -34 53 -65 43 -42 54 -58 41 -60 -22 -4 -73 21 -70 36 2 6 -4 9
-12 6 -11 -5 -13 -2 -8 12 4 11 3 15 -5 10 -17 -10 -27 41 -12 59 8 10 9 15 2
15 -7 0 -9 7 -5 17 6 15 7 14 13 -3 4 -10 5 -23 3 -27z m292 1 c5 4 5 1 1 -6
-4 -7 -12 -9 -18 -6 -8 5 -9 1 -5 -10 4 -9 3 -15 -2 -12 -5 3 -11 15 -14 26
-4 16 -2 18 13 10 9 -5 21 -6 25 -2z m283 -99 c-28 -18 -35 -2 -21 51 7 25 7
24 20 -9 12 -28 12 -35 1 -42z m-188 57 c0 -3 -4 -8 -10 -11 -5 -3 -10 -1 -10
4 0 6 5 11 10 11 6 0 10 -2 10 -4z m112 -28 c-7 -7 -10 -5 -7 8 5 29 6 30 12
16 3 -8 1 -18 -5 -24z m203 -25 c-5 -10 -7 -21 -7 -25 1 -5 -3 -8 -9 -8 -5 0
-7 -4 -4 -10 3 -5 -2 -10 -11 -10 -14 0 -15 -3 -6 -12 13 -13 -3 -52 -18 -43
-5 3 -12 0 -16 -6 -4 -8 -3 -9 4 -5 7 4 12 1 12 -9 0 -9 -4 -14 -9 -11 -5 4
-12 0 -14 -6 -4 -10 -8 -9 -16 2 -9 13 -11 13 -11 -2 0 -9 7 -24 16 -32 13
-14 13 -16 1 -16 -9 0 -18 6 -21 13 -4 6 -4 1 -2 -12 6 -31 -20 -88 -49 -107
-29 -19 -55 -8 -55 23 0 45 23 163 31 163 5 0 9 -4 9 -9 0 -5 8 -11 18 -15 9
-3 24 -9 32 -12 8 -3 -3 10 -24 29 -27 23 -37 40 -33 51 8 19 38 21 56 4 11
-10 13 -10 7 0 -5 8 1 12 18 12 38 0 54 9 77 47 22 34 38 39 24 6z m-342 1
c18 -9 34 -20 37 -23 3 -3 26 -22 52 -41 49 -36 59 -56 33 -66 -10 -4 -12 -11
-6 -22 10 -19 -7 -41 -27 -34 -6 2 -12 -1 -12 -7 0 -6 6 -11 14 -11 8 0 16 -7
20 -15 4 -13 2 -14 -14 -5 -16 9 -22 8 -26 -5 -5 -13 -11 -13 -40 6 -19 11
-34 17 -34 13 0 -3 -12 6 -27 21 -33 32 -78 57 -87 47 -4 -3 -4 1 0 11 5 15 1
18 -22 16 -3 0 -14 15 -24 33 l-18 33 62 31 c73 38 78 39 119 18z m-208 -74
c17 -14 18 -13 12 3 -4 11 -3 16 4 12 6 -4 8 -13 5 -21 -3 -9 11 -30 36 -54
35 -32 45 -37 57 -27 14 10 14 10 4 -4 -11 -13 -7 -21 27 -49 22 -18 37 -37
34 -41 -3 -5 1 -6 8 -4 8 3 28 -7 46 -23 36 -33 40 -42 15 -37 -10 2 -25 4
-34 4 -9 1 -19 11 -22 22 -4 16 -11 20 -25 17 -23 -6 -76 24 -65 37 5 4 -3 2
-16 -5 -15 -8 -21 -8 -17 -1 4 6 0 11 -8 11 -9 0 -16 7 -16 16 0 8 -4 13 -8
10 -5 -3 -45 30 -91 73 l-82 79 59 -2 c36 0 66 -7 77 -16z m-114 -27 c13 -16
12 -17 -3 -4 -10 7 -18 15 -18 17 0 8 8 3 21 -13z m414 -132 c3 -5 2 -12 -3
-15 -5 -3 -9 1 -9 9 0 17 3 19 12 6z"/>
<path d="M807 2593 c-2 -5 0 -19 4 -33 7 -23 7 -22 6 8 -1 33 -3 37 -10 25z"/>
<path d="M1182 2384 c-7 -8 -8 -14 -3 -14 10 0 25 19 20 25 -2 1 -10 -3 -17
-11z"/>
<path d="M1052 2381 c2 -7 7 -12 11 -12 12 1 9 15 -3 20 -7 2 -11 -2 -8 -8z"/>
<path d="M1768 2453 c7 -3 16 -2 19 1 4 3 -2 6 -13 5 -11 0 -14 -3 -6 -6z"/>
<path d="M1800 2436 c0 -2 7 -7 16 -10 8 -3 12 -2 9 4 -6 10 -25 14 -25 6z"/>
<path d="M1083 2161 c-7 -10 -9 -22 -6 -25 12 -12 18 -6 19 19 2 30 2 30 -13
6z"/>
<path d="M2380 2079 c0 -5 5 -7 10 -4 6 3 10 8 10 11 0 2 -4 4 -10 4 -5 0 -10
-5 -10 -11z"/>
<path d="M2581 1974 c0 -11 3 -14 6 -6 3 7 2 16 -1 19 -3 4 -6 -2 -5 -13z"/>
<path d="M2370 1977 c0 -2 6 -10 14 -16 11 -9 16 -9 22 1 4 7 4 10 -1 6 -4 -4
-14 -3 -22 3 -7 6 -13 9 -13 6z"/>
<path d="M2530 1971 c0 -10 19 -25 25 -20 1 2 -3 10 -11 17 -8 7 -14 8 -14 3z"/>
<path d="M2426 1934 c-8 -21 -3 -27 22 -22 18 3 18 4 2 21 -16 17 -18 17 -24
1z"/>
<path d="M2504 1938 c3 -11 -1 -18 -12 -20 -16 -3 -16 -4 0 -10 20 -8 30 13
16 33 -8 11 -9 11 -4 -3z"/>
<path d="M1170 2059 c0 -5 5 -7 10 -4 6 3 10 8 10 11 0 2 -4 4 -10 4 -5 0 -10
-5 -10 -11z"/>
<path d="M967 1863 c5 -12 3 -14 -7 -8 -9 5 -11 4 -6 -4 6 -9 11 -9 22 0 17
14 17 16 0 22 -11 4 -13 1 -9 -10z"/>
<path d="M1125 1790 c-3 -5 -1 -10 4 -10 6 0 11 5 11 10 0 6 -2 10 -4 10 -3 0
-8 -4 -11 -10z"/>
<path d="M1150 1765 c-7 -9 -11 -17 -9 -20 3 -2 10 5 17 15 14 24 10 26 -8 5z"/>
<path d="M1066 1755 c4 -8 7 -15 9 -15 2 0 5 7 9 15 3 9 0 15 -9 15 -9 0 -12
-6 -9 -15z"/>
<path d="M1106 1762 c-3 -5 1 -9 9 -9 8 0 12 4 9 9 -3 4 -7 8 -9 8 -2 0 -6 -4
-9 -8z"/>
<path d="M822 1650 c0 -14 2 -19 5 -12 2 6 2 18 0 25 -3 6 -5 1 -5 -13z"/>
<path d="M837 1590 c6 -38 31 -111 32 -95 0 6 -8 37 -19 70 -11 33 -17 44 -13
25z"/>
<path d="M831 1424 c0 -11 3 -14 6 -6 3 7 2 16 -1 19 -3 4 -6 -2 -5 -13z"/>
<path d="M970 1359 c0 -5 5 -7 10 -4 6 3 10 8 10 11 0 2 -4 4 -10 4 -5 0 -10
-5 -10 -11z"/>
<path d="M965 1330 c3 -5 8 -10 11 -10 2 0 4 5 4 10 0 6 -5 10 -11 10 -5 0 -7
-4 -4 -10z"/>
<path d="M2085 1680 c-3 -5 -1 -10 4 -10 6 0 11 5 11 10 0 6 -2 10 -4 10 -3 0
-8 -4 -11 -10z"/>
<path d="M970 1688 c0 -9 7 -19 16 -22 15 -6 15 -4 3 11 -7 10 -15 20 -16 22
-2 2 -3 -3 -3 -11z"/>
<path d="M1110 1599 c0 -5 5 -7 10 -4 6 3 10 8 10 11 0 2 -4 4 -10 4 -5 0 -10
-5 -10 -11z"/>
<path d="M2341 1445 c1 -19 18 -51 18 -35 0 8 -4 22 -9 30 -5 8 -9 11 -9 5z"/>
<path d="M1115 1140 c-4 -6 -3 -16 3 -22 6 -6 12 -6 17 2 4 6 3 16 -3 22 -6 6
-12 6 -17 -2z"/>
<path d="M1310 1266 c0 -2 7 -7 16 -10 8 -3 12 -2 9 4 -6 10 -25 14 -25 6z"/>
<path d="M1496 1222 c-2 -4 -1 -14 3 -21 6 -10 10 -9 14 3 6 16 -8 32 -17 18z"/>
<path d="M1536 823 c-6 -14 -5 -15 5 -6 7 7 10 15 7 18 -3 3 -9 -2 -12 -12z"/>
<path d="M1349 932 c-3 -20 -2 -29 4 -23 5 5 7 19 5 32 -3 20 -5 19 -9 -9z"/>
<path d="M1798 3323 c7 -3 16 -2 19 1 4 3 -2 6 -13 5 -11 0 -14 -3 -6 -6z"/>
<path d="M1918 3313 c7 -3 16 -2 19 1 4 3 -2 6 -13 5 -11 0 -14 -3 -6 -6z"/>
<path d="M2005 3289 c-31 -7 -30 -7 47 -14 26 -2 61 -11 78 -20 36 -19 40 -14
6 9 -34 21 -95 33 -131 25z"/>
<path d="M2238 3283 c7 -3 16 -2 19 1 4 3 -2 6 -13 5 -11 0 -14 -3 -6 -6z"/>
<path d="M2271 3276 c12 -10 60 -16 54 -6 -3 5 -18 10 -32 10 -15 0 -24 -2
-22 -4z"/>
<path d="M1796 3235 c3 -8 11 -13 17 -12 7 1 11 -4 9 -11 -1 -8 2 -11 8 -7 8
5 6 13 -6 26 -20 23 -36 25 -28 4z"/>
<path d="M2170 3244 c0 -2 10 -8 21 -15 17 -8 20 -8 17 2 -4 11 -38 23 -38 13z"/>
<path d="M2227 3209 c7 -7 15 -10 18 -7 3 3 -2 9 -12 12 -14 6 -15 5 -6 -5z"/>
<path d="M1853 3177 c14 -21 13 -24 -1 -34 -14 -10 -13 -11 6 -6 13 3 22 2 21
-3 -4 -21 2 -35 11 -29 6 3 10 2 10 -2 0 -5 7 -18 15 -29 14 -17 14 -17 3 11
-14 35 -66 115 -75 115 -3 0 2 -10 10 -23z"/>
<path d="M1688 3133 c6 -2 18 -2 25 0 6 3 1 5 -13 5 -14 0 -19 -2 -12 -5z"/>
<path d="M2412 3087 c10 -8 14 -18 10 -22 -4 -5 -1 -5 6 -1 17 10 15 14 -10
26 -21 10 -21 10 -6 -3z"/>
<path d="M1463 3015 c0 -8 4 -12 9 -9 5 3 6 10 3 15 -9 13 -12 11 -12 -6z"/>
<path d="M2486 3004 c3 -11 14 -25 25 -32 25 -16 24 -11 -6 24 -19 22 -23 24
-19 8z"/>
<path d="M1479 2998 c-7 -24 -4 -34 12 -35 16 -2 17 2 9 18 -9 17 -18 24 -21
17z"/>
<path d="M1438 2983 c7 -3 16 -2 19 1 4 3 -2 6 -13 5 -11 0 -14 -3 -6 -6z"/>
<path d="M1720 2980 c0 -5 7 -10 15 -10 19 0 56 -20 72 -40 11 -13 12 -13 13
1 0 8 -17 25 -39 37 -42 24 -61 28 -61 12z"/>
<path d="M1409 2933 l-24 -28 27 24 c14 12 31 20 37 16 6 -3 11 -1 11 4 0 20
-26 11 -51 -16z"/>
<path d="M2641 2940 c-1 -8 -4 -26 -7 -40 -5 -22 -4 -23 6 -7 6 10 9 28 7 40
-2 12 -5 15 -6 7z"/>
<path d="M1370 2893 c0 -6 8 -17 18 -24 16 -13 16 -13 2 6 -8 11 -16 22 -17
24 -2 2 -3 0 -3 -6z"/>
<path d="M1657 2861 c-44 -47 -47 -58 -9 -34 19 13 24 14 15 3 -9 -12 -8 -19
2 -34 13 -17 14 -16 13 10 0 16 5 42 11 58 6 16 10 30 8 32 -2 2 -20 -14 -40
-35z"/>
<path d="M2884 2868 c-4 -7 -4 -10 1 -6 4 4 15 2 24 -5 14 -11 14 -10 2 6 -16
20 -18 21 -27 5z"/>
<path d="M2230 2820 c-9 -6 -10 -10 -3 -10 6 0 15 5 18 10 8 12 4 12 -15 0z"/>
<path d="M1682 2700 c0 -14 2 -19 5 -12 2 6 2 18 0 25 -3 6 -5 1 -5 -13z"/>
<path d="M3194 2681 c9 -16 12 -32 8 -36 -4 -5 -1 -5 6 -1 12 7 16 -4 13 -32
-1 -8 10 -29 24 -48 15 -20 25 -44 23 -58 -1 -13 10 -42 27 -67 17 -24 40 -69
53 -99 13 -30 20 -44 17 -30 -3 14 -9 43 -12 65 -3 22 -9 42 -13 45 -11 9 -65
144 -62 157 2 7 -1 13 -6 13 -5 0 -26 27 -46 60 -39 63 -57 81 -32 31z m106
-197 c0 -8 -19 -13 -24 -6 -3 5 1 9 9 9 8 0 15 -2 15 -3z"/>
<path d="M2035 2671 c-3 -5 -1 -12 5 -16 5 -3 10 1 10 9 0 18 -6 21 -15 7z"/>
<path d="M2725 2650 c3 -5 11 -10 16 -10 6 0 7 5 4 10 -3 6 -11 10 -16 10 -6
0 -7 -4 -4 -10z"/>
<path d="M3036 2647 c3 -10 9 -15 12 -12 3 3 0 11 -7 18 -10 9 -11 8 -5 -6z"/>
<path d="M1670 2630 c0 -5 7 -7 15 -4 8 4 15 8 15 10 0 2 -7 4 -15 4 -8 0 -15
-4 -15 -10z"/>
<path d="M2987 2616 c-4 -10 -1 -13 8 -9 8 3 12 9 9 14 -7 12 -11 11 -17 -5z"/>
<path d="M3045 2610 c3 -5 8 -10 11 -10 2 0 4 5 4 10 0 6 -5 10 -11 10 -5 0
-7 -4 -4 -10z"/>
<path d="M2810 2600 c0 -5 5 -10 10 -10 6 0 16 -5 23 -10 7 -6 21 -17 32 -25
20 -13 20 -14 -3 -44 l-23 -31 23 -9 c30 -11 37 -5 13 13 -13 10 -15 15 -6 21
18 10 34 -9 34 -39 0 -15 2 -28 6 -30 9 -6 7 77 -3 93 -6 9 -1 8 16 -3 14 -9
28 -13 31 -9 4 3 7 1 7 -5 0 -7 7 -12 16 -12 13 0 9 7 -12 27 -16 15 -35 26
-43 25 -8 -2 -10 1 -6 8 6 9 2 9 -14 1 -17 -10 -22 -9 -27 3 -3 9 -20 22 -37
31 -36 18 -37 18 -37 5z"/>
<path d="M3120 2605 c0 -5 5 -17 10 -25 5 -8 10 -10 10 -5 0 6 -5 17 -10 25
-5 8 -10 11 -10 5z"/>
<path d="M2078 2582 c9 -10 23 -18 31 -18 9 -1 6 6 -9 18 -29 23 -45 23 -22 0z"/>
<path d="M3210 2560 c0 -5 5 -10 10 -10 6 0 10 5 10 10 0 6 -4 10 -10 10 -5 0
-10 -4 -10 -10z"/>
<path d="M3156 2497 c3 -10 9 -15 12 -12 3 3 0 11 -7 18 -10 9 -11 8 -5 -6z"/>
<path d="M2930 2494 c1 -15 29 -48 36 -41 3 3 -3 16 -15 28 -12 13 -21 19 -21
13z"/>
<path d="M2997 2493 c-12 -12 -8 -18 23 -31 26 -12 33 -23 29 -48 0 -4 5 -10
13 -15 7 -5 13 -12 13 -16 0 -4 10 -21 21 -38 12 -16 20 -40 19 -52 -1 -12 5
-25 13 -28 10 -4 13 0 9 15 -3 11 -1 23 4 26 24 14 6 55 -51 116 -33 34 -60
66 -60 71 0 9 -24 9 -33 0z m143 -164 c0 -10 -2 -19 -5 -19 -7 0 -35 57 -35
72 1 20 40 -32 40 -53z"/>
<path d="M2660 2460 c-6 -11 -8 -20 -6 -20 3 0 10 9 16 20 6 11 8 20 6 20 -3
0 -10 -9 -16 -20z"/>
<path d="M2046 2444 c-4 -14 -5 -28 -3 -31 3 -2 8 8 11 23 4 14 5 28 3 31 -3
2 -8 -8 -11 -23z"/>
<path d="M1951 2434 c0 -11 3 -14 6 -6 3 7 2 16 -1 19 -3 4 -6 -2 -5 -13z"/>
<path d="M2620 2416 c0 -8 4 -17 9 -20 5 -4 7 3 4 14 -6 23 -13 26 -13 6z"/>
<path d="M2032 2380 c0 -14 2 -19 5 -12 2 6 2 18 0 25 -3 6 -5 1 -5 -13z"/>
<path d="M2047 2343 c-4 -3 -7 -11 -7 -17 0 -6 5 -5 12 2 6 6 9 14 7 17 -3 3
-9 2 -12 -2z"/>
<path d="M2051 2294 c0 -11 3 -14 6 -6 3 7 2 16 -1 19 -3 4 -6 -2 -5 -13z"/>
<path d="M2645 2290 c-3 -5 -1 -10 4 -10 6 0 11 5 11 10 0 6 -2 10 -4 10 -3 0
-8 -4 -11 -10z"/>
<path d="M3195 2264 c7 -19 12 -40 15 -79 2 -17 3 -16 9 5 8 27 -4 76 -22 87
-7 4 -8 0 -2 -13z"/>
<path d="M2656 2262 c-2 -4 -1 -14 5 -22 7 -12 9 -10 9 8 0 23 -5 28 -14 14z"/>
<path d="M3363 2250 c-11 -16 -10 -18 2 -14 8 4 15 12 15 20 0 19 -3 18 -17
-6z"/>
<path d="M2565 2240 c-16 -11 -24 -20 -17 -21 33 -4 37 -6 34 -18 -2 -9 4 -12
18 -8 15 4 20 2 17 -8 -3 -7 1 -30 8 -51 8 -22 14 -33 15 -25 0 22 10 7 16
-25 7 -36 14 -44 14 -15 0 14 4 20 11 15 8 -4 8 0 0 15 -7 12 -9 26 -6 31 3 6
1 10 -6 10 -9 0 -9 3 0 14 8 10 9 16 1 21 -5 3 -10 0 -10 -7 -1 -12 -24 20
-25 33 0 12 -33 38 -39 31 -4 -3 -4 1 0 11 8 21 6 21 -31 -3z"/>
<path d="M3105 2241 c3 -6 15 -11 26 -11 15 0 19 -7 19 -35 0 -19 4 -35 8 -35
5 0 6 19 3 43 -5 37 -9 42 -35 45 -18 2 -26 0 -21 -7z"/>
<path d="M2593 2155 c0 -8 4 -15 9 -15 4 0 8 4 8 9 0 6 -4 12 -8 15 -5 3 -9
-1 -9 -9z"/>
<path d="M3211 2134 c0 -11 3 -14 6 -6 3 7 2 16 -1 19 -3 4 -6 -2 -5 -13z"/>
<path d="M3302 2125 c0 -16 2 -22 5 -12 2 9 2 23 0 30 -3 6 -5 -1 -5 -18z"/>
<path d="M2852 2126 c7 -8 15 -12 17 -11 5 6 -10 25 -20 25 -5 0 -4 -6 3 -14z"/>
<path d="M3281 2074 c0 -11 3 -14 6 -6 3 7 2 16 -1 19 -3 4 -6 -2 -5 -13z"/>
<path d="M3292 2030 c0 -14 2 -19 5 -12 2 6 2 18 0 25 -3 6 -5 1 -5 -13z"/>
<path d="M2651 2024 c0 -11 3 -14 6 -6 3 7 2 16 -1 19 -3 4 -6 -2 -5 -13z"/>
<path d="M3130 2031 c0 -10 19 -25 25 -20 1 2 -3 10 -11 17 -8 7 -14 8 -14 3z"/>
<path d="M3205 1999 c-4 -6 -5 -12 -2 -15 2 -3 7 2 10 11 7 17 1 20 -8 4z"/>
<path d="M2711 1964 c0 -11 3 -14 6 -6 3 7 2 16 -1 19 -3 4 -6 -2 -5 -13z"/>
<path d="M3311 1924 c0 -11 3 -14 6 -6 3 7 2 16 -1 19 -3 4 -6 -2 -5 -13z"/>
<path d="M3123 1896 c-10 -11 -9 -15 1 -19 8 -3 16 3 19 14 6 22 -3 24 -20 5z"/>
<path d="M3191 1894 c0 -11 3 -14 6 -6 3 7 2 16 -1 19 -3 4 -6 -2 -5 -13z"/>
<path d="M3365 1900 l-30 -8 30 -2 c20 -2 24 -4 12 -7 -13 -3 -16 -10 -11 -21
13 -30 16 -92 6 -105 -11 -13 -15 -39 -13 -72 4 -38 39 94 43 160 2 36 1 64
-2 64 -3 -1 -18 -5 -35 -9z"/>
<path d="M3298 1893 c-18 -5 -33 -33 -18 -33 6 0 10 5 10 11 0 6 9 8 20 4 15
-5 18 -3 14 9 -3 9 -7 15 -8 15 0 -1 -8 -3 -18 -6z"/>
<path d="M3150 1754 c-13 -29 -26 -94 -16 -84 2 3 6 17 8 32 2 14 10 33 17 42
7 8 11 20 9 27 -2 6 -10 -2 -18 -17z"/>
<path d="M2714 1741 c10 -15 -12 -61 -29 -61 -8 0 -15 -8 -15 -18 0 -10 -5
-23 -12 -30 -9 -9 -9 -12 0 -12 6 0 15 6 19 13 4 6 14 12 22 12 8 0 19 17 25
38 6 22 14 35 19 31 4 -4 7 0 7 10 0 9 -4 14 -10 11 -5 -3 -10 -1 -10 4 0 6
-5 11 -11 11 -5 0 -8 -4 -5 -9z"/>
<path d="M3075 1727 c-4 -10 -5 -21 -1 -24 10 -10 18 4 13 24 -4 17 -4 17 -12
0z"/>
<path d="M3055 1679 c-4 -6 -5 -12 -2 -15 2 -3 7 2 10 11 7 17 1 20 -8 4z"/>
<path d="M3314 1675 c-16 -12 -17 -14 -3 -15 9 0 19 7 23 15 7 19 5 19 -20 0z"/>
<path d="M1991 1634 c0 -11 3 -14 6 -6 3 7 2 16 -1 19 -3 4 -6 -2 -5 -13z"/>
<path d="M2550 1621 c0 -5 -8 -12 -17 -14 -10 -3 -6 -4 10 -4 24 1 41 27 17
27 -5 0 -10 -4 -10 -9z"/>
<path d="M2697 1623 c-4 -3 -7 -20 -6 -37 l1 -31 9 34 c10 33 8 47 -4 34z"/>
<path d="M3171 1614 c0 -11 3 -14 6 -6 3 7 2 16 -1 19 -3 4 -6 -2 -5 -13z"/>
<path d="M2977 1554 c3 -8 -1 -14 -8 -14 -7 0 -9 -3 -6 -7 4 -3 2 -12 -4 -20
-17 -19 -1 -16 20 5 27 26 32 48 10 49 -12 1 -16 -3 -12 -13z"/>
<path d="M3014 1531 c4 -5 3 -11 -1 -14 -5 -2 -2 -2 5 -1 15 4 16 -11 2 -37
-6 -11 -7 -19 -1 -19 5 0 12 7 15 16 5 13 9 14 22 4 8 -7 13 -19 10 -26 -3 -8
0 -11 9 -7 11 4 6 16 -21 49 -33 40 -54 59 -40 35z"/>
<path d="M2921 1471 c-8 -5 -9 -11 -3 -15 5 -3 15 1 22 9 14 16 3 20 -19 6z"/>
<path d="M2022 1428 c2 -16 6 -24 11 -19 5 5 5 17 -2 28 -9 16 -10 15 -9 -9z"/>
<path d="M2882 1429 c-7 -10 -8 -19 -3 -19 13 0 33 28 23 33 -4 3 -13 -3 -20
-14z"/>
<path d="M2985 1439 c-4 -6 -5 -12 -2 -15 2 -3 7 2 10 11 7 17 1 20 -8 4z"/>
<path d="M3090 1412 c0 -5 7 -9 15 -9 8 0 12 4 9 9 -3 4 -9 8 -15 8 -5 0 -9
-4 -9 -8z"/>
<path d="M2943 1388 c-19 -25 -24 -38 -14 -38 11 0 35 39 28 46 -2 3 -9 -1
-14 -8z"/>
<path d="M2030 1378 c0 -9 5 -20 10 -23 13 -8 13 5 0 25 -8 13 -10 13 -10 -2z"/>
<path d="M3126 1361 c5 -25 4 -32 -4 -27 -7 4 -12 0 -12 -10 0 -10 -8 -26 -17
-37 -10 -11 -12 -17 -5 -13 6 4 12 3 12 -3 0 -5 -19 -11 -42 -13 -25 -2 -42
-8 -41 -14 1 -7 -5 -11 -15 -10 -10 0 -16 -6 -16 -16 1 -10 -4 -14 -11 -11
-14 5 -15 -13 -2 -35 5 -7 2 -14 -7 -18 -9 -3 -13 -10 -10 -15 6 -11 64 43 57
54 -2 4 5 7 16 7 12 0 26 9 33 20 7 11 20 20 28 19 9 0 10 -3 4 -5 -7 -3 -9
-14 -6 -26 3 -13 1 -19 -5 -15 -6 4 -16 0 -22 -7 -9 -11 -9 -16 0 -21 12 -8
-6 -25 -26 -25 -5 0 -3 5 5 10 8 5 10 10 4 10 -6 0 -17 -7 -24 -16 -8 -8 -9
-14 -4 -13 32 6 34 -4 6 -24 -17 -13 -29 -27 -25 -30 3 -4 1 -7 -5 -7 -7 0
-12 6 -13 13 0 6 -9 -6 -19 -28 -10 -22 -19 -34 -19 -26 -1 11 -6 10 -21 -4
-24 -22 -25 -14 -5 25 15 29 15 29 -7 21 -17 -7 -22 -15 -20 -35 2 -20 -3 -28
-20 -35 -21 -8 -20 -8 10 -13 18 -2 32 -1 32 3 0 4 7 9 15 13 25 9 2 -25 -45
-67 -42 -39 -73 -51 -49 -19 13 15 12 16 -3 4 -10 -8 -14 -20 -11 -29 5 -12 2
-15 -10 -10 -11 4 -17 1 -17 -9 0 -8 -3 -13 -8 -10 -4 2 -47 -23 -96 -56 -94
-63 -138 -85 -133 -67 1 6 -11 13 -27 14 -21 3 -29 -1 -33 -15 -3 -10 -15 -20
-27 -22 -11 -2 6 -4 39 -5 51 -1 69 4 125 35 36 19 74 40 85 46 47 25 184 138
235 193 92 98 125 144 170 233 26 52 31 72 27 108 -3 24 -10 49 -16 55 -8 8
-10 3 -5 -22z m-81 -141 c-3 -5 -11 -10 -16 -10 -6 0 -7 5 -4 10 3 6 11 10 16
10 6 0 7 -4 4 -10z"/>
<path d="M2120 1370 c-8 -5 -10 -10 -5 -10 6 0 17 5 25 10 8 5 11 10 5 10 -5
0 -17 -5 -25 -10z"/>
<path d="M2427 1312 c-25 -27 -21 -36 5 -12 12 11 19 22 16 25 -2 3 -12 -3
-21 -13z"/>
<path d="M2976 1275 c-9 -26 -7 -32 5 -12 6 10 9 21 6 23 -2 3 -7 -2 -11 -11z"/>
<path d="M2924 1226 c1 -8 5 -18 8 -22 4 -3 5 1 4 10 -1 8 -5 18 -8 22 -4 3
-5 -1 -4 -10z"/>
<path d="M2892 1160 c-7 -11 -8 -20 -2 -20 5 0 14 9 20 20 6 11 7 20 3 20 -5
0 -14 -9 -21 -20z"/>
<path d="M2814 1140 c0 -10 4 -18 9 -17 5 1 12 -4 14 -10 3 -7 0 -13 -6 -13
-6 0 -11 -7 -11 -16 0 -9 -7 -14 -17 -13 -21 2 -53 -10 -53 -21 0 -10 50 -43
57 -37 2 3 -1 15 -7 27 -9 16 -9 20 -1 15 7 -4 23 0 36 9 15 10 26 12 30 6 9
-14 27 -1 21 15 -2 7 0 17 5 22 6 6 0 18 -16 33 -21 20 -25 21 -19 6 7 -17 6
-18 -17 -2 -23 15 -25 14 -25 -4z"/>
<path d="M2453 941 c6 -26 3 -37 -10 -47 -38 -27 -4 -22 47 8 30 17 49 33 42
36 -7 2 -21 -3 -32 -13 -18 -16 -38 -6 -26 14 3 5 -2 15 -11 22 -15 13 -16 11
-10 -20z"/>
<path d="M2482 827 c5 -27 0 -31 -34 -28 -11 2 -18 -5 -18 -15 0 -9 -8 -23
-17 -31 -14 -12 -13 -12 7 0 14 9 24 19 23 24 -1 4 9 9 22 9 13 1 32 8 43 15
19 14 19 15 -6 33 l-25 19 5 -26z"/>
</g>
</svg>
